<?xml version="1.0" standalone="no"?>
<!DOCTYPE svg PUBLIC "-//W3C//DTD SVG 20010904//EN"
 "http://www.w3.org/TR/2001/REC-SVG-20010904/DTD/svg10.dtd">
<svg version="1.0" xmlns="http://www.w3.org/2000/svg"
 width="2000.000000pt" height="2000.000000pt" viewBox="0 0 2000.000000 2000.000000"
 preserveAspectRatio="xMidYMid meet">
<metadata>
Created by potrace 1.14, written by Peter Selinger 2001-2017
</metadata>
<g transform="translate(0.000000,2000.000000) scale(0.100000,-0.100000)"
fill="#000000" stroke="none">
<path d="M7950 19399 c-55 -20 -78 -112 -58 -229 9 -54 54 -264 78 -365 12
-49 23 -97 25 -105 2 -8 31 -134 65 -280 55 -235 92 -397 106 -469 3 -12 12
-53 20 -90 9 -36 18 -77 20 -91 3 -14 9 -41 14 -60 5 -19 11 -46 14 -60 5 -29
35 -185 42 -215 2 -11 6 -31 9 -45 5 -24 69 -384 79 -445 3 -16 7 -43 10 -60
8 -48 15 -90 31 -205 5 -36 23 -177 30 -235 3 -27 7 -66 10 -85 2 -19 7 -69
10 -110 3 -41 8 -89 10 -105 16 -117 22 -512 11 -699 -6 -106 -11 -156 -32
-300 -10 -68 -51 -220 -79 -292 -95 -241 -233 -379 -440 -440 -97 -29 -391
-25 -515 6 -19 5 -46 11 -60 13 -120 22 -435 133 -628 223 -103 48 -370 182
-457 229 -83 46 -393 227 -450 264 -22 14 -47 30 -57 36 -87 54 -171 107 -328
212 -102 67 -189 126 -195 131 -5 4 -62 43 -125 87 -63 43 -119 83 -125 87
-17 13 -97 71 -150 107 -76 53 -708 527 -816 613 -19 14 -90 71 -159 125 -69
54 -142 112 -163 128 -21 17 -46 37 -56 45 -10 8 -33 26 -51 40 -35 27 -303
241 -335 268 -40 34 -519 418 -604 485 -411 323 -490 370 -573 345 -99 -30
-102 -134 -7 -250 117 -143 166 -194 669 -708 208 -212 415 -423 460 -470 112
-117 371 -388 406 -426 166 -179 246 -266 284 -309 25 -27 52 -57 60 -65 16
-15 255 -287 356 -405 104 -121 267 -320 365 -445 28 -36 57 -73 64 -82 48
-59 204 -276 290 -403 224 -329 370 -603 450 -842 40 -118 55 -195 61 -306 7
-125 -10 -209 -60 -293 -119 -204 -433 -328 -911 -361 -196 -13 -651 -7 -875
12 -19 2 -69 6 -110 9 -41 4 -133 13 -205 21 -71 9 -150 18 -175 20 -25 3 -56
7 -70 10 -14 2 -50 6 -80 10 -30 4 -66 8 -80 10 -14 2 -45 7 -70 10 -93 13
-416 65 -562 90 -16 3 -38 7 -50 9 -13 2 -61 11 -108 20 -95 18 -110 21 -160
30 -19 3 -46 8 -60 11 -14 3 -38 7 -55 10 -16 3 -52 10 -80 15 -27 6 -61 12
-75 15 -14 3 -106 21 -205 41 -99 20 -189 38 -200 40 -11 2 -54 11 -95 19
-107 22 -121 25 -155 30 -16 3 -37 8 -45 10 -8 2 -35 7 -60 10 -24 4 -47 8
-51 11 -3 2 -24 6 -45 9 -21 2 -49 7 -61 9 -25 5 -91 14 -148 21 -91 10 -155
-37 -155 -113 0 -109 75 -139 1330 -527 206 -64 409 -126 450 -139 41 -13 149
-47 240 -76 91 -28 176 -55 190 -60 14 -5 167 -54 340 -110 173 -56 324 -106
335 -111 11 -4 54 -20 95 -33 41 -14 138 -47 215 -74 122 -44 205 -74 480
-177 90 -33 282 -113 353 -146 35 -16 65 -29 68 -29 5 0 264 -128 289 -143
147 -89 245 -165 245 -191 0 -51 -269 -142 -540 -181 -137 -20 -316 -45 -360
-50 -30 -3 -71 -8 -90 -10 -19 -2 -69 -7 -110 -10 -41 -4 -86 -8 -100 -10 -14
-2 -63 -6 -110 -10 -47 -3 -105 -8 -130 -10 -91 -9 -233 -19 -430 -30 -47 -3
-121 -7 -165 -10 -127 -7 -271 -15 -395 -20 -110 -4 -254 -11 -425 -20 -44 -2
-156 -7 -250 -10 -93 -3 -204 -8 -245 -10 -41 -3 -140 -7 -220 -10 -80 -3
-181 -8 -225 -10 -44 -2 -132 -7 -195 -10 -110 -5 -155 -8 -320 -20 -259 -19
-323 -27 -451 -56 -71 -17 -92 -26 -119 -54 -28 -29 -33 -42 -33 -79 0 -24 7
-56 16 -69 16 -26 83 -63 127 -71 14 -2 59 -11 100 -19 96 -20 134 -26 195
-32 28 -3 66 -8 85 -11 19 -2 53 -7 75 -9 22 -3 63 -8 90 -11 28 -4 64 -8 80
-9 26 -3 206 -25 330 -41 22 -2 56 -6 75 -9 43 -4 266 -34 300 -40 14 -2 57
-9 95 -15 39 -6 81 -13 95 -15 14 -2 43 -6 65 -10 23 -3 52 -7 65 -10 13 -3
42 -7 64 -11 22 -3 43 -7 46 -9 3 -2 30 -6 60 -10 30 -4 58 -9 61 -11 4 -2 24
-6 45 -10 310 -47 888 -215 1153 -333 470 -211 725 -449 808 -756 14 -51 12
-292 -3 -360 -8 -38 -17 -80 -20 -93 -13 -62 -128 -341 -159 -382 -6 -8 -21
-35 -34 -60 -38 -73 -167 -266 -260 -390 -70 -94 -228 -289 -251 -310 -3 -3
-36 -41 -75 -85 -156 -179 -488 -513 -741 -745 -62 -57 -227 -205 -278 -251
-21 -19 -44 -38 -50 -44 -6 -5 -45 -39 -86 -75 -41 -36 -88 -77 -105 -91 -16
-15 -84 -73 -150 -129 -66 -56 -131 -112 -145 -124 -14 -11 -81 -68 -150 -126
-147 -123 -418 -357 -441 -379 -9 -9 -42 -41 -74 -70 -124 -117 -171 -195
-162 -267 11 -79 86 -113 190 -87 82 21 273 113 497 240 19 11 78 44 130 74
52 30 104 59 115 66 11 7 27 16 35 20 14 6 105 60 155 90 11 7 27 16 35 20 13
6 287 162 380 216 19 11 51 29 70 39 67 35 165 90 190 106 14 8 47 28 75 42
45 24 92 50 235 128 90 49 568 289 655 329 147 68 215 98 310 138 50 20 104
43 120 51 175 76 561 196 705 219 19 3 46 7 60 10 103 19 308 22 385 6 62 -14
165 -53 165 -63 0 -5 6 -8 13 -8 16 0 97 -81 97 -97 0 -6 3 -13 8 -15 4 -1 19
-29 34 -60 30 -61 53 -149 63 -238 7 -63 7 -269 0 -326 -2 -21 -7 -66 -10 -99
-2 -33 -7 -69 -9 -80 -2 -11 -7 -42 -10 -68 -4 -27 -9 -57 -11 -67 -2 -9 -6
-34 -9 -54 -7 -43 -20 -101 -47 -216 -12 -47 -22 -92 -24 -101 -11 -56 -108
-378 -167 -554 -114 -342 -329 -906 -433 -1140 -8 -16 -26 -59 -40 -95 -15
-36 -36 -84 -46 -107 -10 -23 -19 -44 -19 -47 0 -2 -15 -37 -34 -78 -19 -40
-59 -129 -89 -198 -58 -132 -94 -213 -132 -295 -99 -214 -157 -340 -186 -400
-18 -38 -34 -72 -35 -75 0 -3 -24 -54 -53 -115 -29 -60 -67 -139 -83 -175 -17
-36 -60 -126 -96 -200 -103 -215 -147 -310 -186 -392 -20 -43 -52 -113 -72
-155 -112 -240 -133 -339 -81 -390 23 -24 35 -28 79 -27 48 0 54 4 89 43 44
49 123 164 145 211 4 8 10 17 14 20 3 3 19 28 35 55 17 28 34 58 40 67 84 141
232 391 247 418 11 19 24 40 28 45 4 6 19 30 32 55 33 58 180 306 351 593 76
126 137 232 137 237 0 5 3 10 8 12 4 2 38 55 76 118 37 63 78 131 91 150 12
19 74 117 136 217 201 322 254 404 438 683 86 129 159 240 164 245 4 6 58 82
119 170 97 139 210 299 235 330 4 6 42 55 83 110 41 55 77 102 80 105 5 4 31
39 110 141 193 252 531 613 740 790 334 283 609 380 796 280 66 -35 146 -108
190 -174 16 -23 31 -44 34 -47 5 -5 24 -38 62 -111 84 -158 211 -562 242 -773
4 -21 8 -48 11 -60 7 -32 34 -180 40 -221 15 -105 26 -187 30 -220 6 -46 13
-99 20 -154 3 -21 7 -58 9 -83 2 -24 7 -66 10 -93 3 -28 8 -77 11 -110 3 -33
7 -85 10 -115 3 -30 7 -89 10 -130 3 -41 7 -102 10 -135 26 -323 48 -914 59
-1615 13 -761 17 -904 31 -1093 15 -197 46 -268 121 -280 84 -14 135 39 160
168 1 6 6 35 13 65 6 30 13 69 15 85 7 47 18 127 21 161 2 17 9 78 15 135 6
57 13 115 15 129 4 27 16 137 20 185 4 53 16 169 21 205 6 52 12 108 19 175 3
33 8 71 10 85 2 14 7 54 10 90 4 36 9 72 10 80 1 8 6 46 10 83 3 37 8 77 10
87 2 10 6 45 10 77 3 32 7 69 10 83 2 14 7 50 11 80 3 30 7 57 9 60 1 3 6 32
9 65 6 54 20 148 31 215 2 14 7 43 10 65 21 140 80 456 125 670 12 55 23 107
25 115 45 213 182 657 258 835 75 178 172 357 251 465 101 139 252 259 374
297 64 20 196 24 281 8 179 -35 398 -155 641 -354 110 -90 400 -374 510 -500
36 -41 70 -79 75 -85 18 -19 169 -200 200 -240 17 -21 35 -44 40 -50 137 -156
624 -844 875 -1236 29 -47 75 -118 102 -158 26 -41 48 -76 48 -79 0 -2 13 -23
29 -46 24 -35 104 -162 172 -275 9 -15 42 -70 74 -122 31 -52 67 -111 80 -130
12 -19 113 -188 225 -375 202 -339 234 -391 316 -515 60 -89 88 -117 130 -129
76 -21 136 34 129 118 -5 58 -65 192 -268 596 -568 1133 -685 1369 -824 1665
-142 301 -203 432 -203 435 0 2 -13 32 -29 67 -228 494 -452 1066 -579 1478
-22 73 -78 289 -87 335 -30 171 -37 227 -40 335 -1 70 3 150 10 183 14 71 58
136 109 161 76 37 249 23 417 -34 177 -60 435 -180 635 -296 54 -31 115 -66
134 -77 123 -68 762 -483 813 -528 15 -12 292 -210 316 -224 9 -5 18 -12 21
-15 5 -6 269 -203 319 -238 13 -9 35 -26 50 -38 14 -11 64 -50 111 -85 209
-160 277 -212 455 -353 228 -179 472 -375 735 -590 107 -87 210 -170 228 -185
18 -14 39 -31 45 -37 7 -6 39 -32 71 -58 32 -26 68 -56 79 -66 12 -10 81 -66
152 -125 72 -59 150 -124 175 -145 93 -78 379 -307 419 -334 79 -55 164 -41
188 31 23 66 -18 120 -252 328 -60 54 -122 110 -136 124 -15 14 -39 37 -55 50
-34 28 -192 168 -215 191 -13 12 -114 103 -179 160 -10 8 -54 49 -100 90 -46
41 -91 82 -100 90 -9 8 -61 55 -114 104 -53 49 -106 98 -119 108 -34 30 -213
195 -297 275 -41 39 -88 83 -105 98 -129 117 -413 393 -695 675 -372 372 -435
438 -741 775 -63 69 -217 250 -264 310 -22 28 -45 55 -51 60 -23 22 -231 297
-284 375 -8 12 -26 39 -41 59 -144 205 -294 512 -316 647 -15 89 -8 195 15
239 21 41 68 90 112 116 40 24 157 69 198 75 20 3 39 7 42 9 6 4 120 16 190
21 62 4 313 4 380 0 102 -7 231 -17 268 -21 35 -4 61 -7 162 -20 62 -8 190
-25 220 -31 14 -2 79 -13 145 -24 66 -11 131 -22 145 -25 14 -3 39 -7 55 -10
17 -3 41 -8 55 -10 14 -3 36 -7 50 -10 28 -5 162 -33 200 -41 14 -3 45 -9 70
-14 25 -4 59 -11 75 -15 28 -6 563 -132 595 -140 8 -2 35 -8 60 -14 25 -7 52
-13 60 -15 8 -3 33 -9 55 -14 97 -24 401 -103 504 -132 62 -17 120 -33 130
-35 9 -2 66 -18 126 -35 61 -17 119 -33 130 -35 11 -3 196 -55 410 -115 215
-61 397 -113 405 -115 8 -1 74 -20 145 -40 72 -20 137 -38 145 -40 8 -2 47
-13 85 -24 213 -60 537 -138 610 -147 22 -3 52 -7 67 -9 50 -6 107 16 135 51
21 29 25 42 20 80 -2 24 -13 54 -23 66 -31 34 -140 101 -269 163 -143 69 -285
135 -290 135 -2 0 -32 13 -67 29 -35 16 -262 117 -505 225 -432 191 -483 214
-648 292 -44 20 -82 38 -85 38 -28 6 -853 419 -870 436 -3 3 -23 15 -45 27
-38 20 -68 37 -152 84 -147 82 -438 276 -546 362 -297 239 -416 433 -351 573
60 129 307 276 656 389 113 36 358 105 427 120 9 2 68 15 131 29 63 14 127 27
143 30 15 2 35 7 45 10 15 4 49 11 112 21 8 1 33 6 55 10 132 26 303 54 540
91 127 19 241 37 255 39 122 18 146 21 210 29 25 3 54 8 65 10 21 4 101 16
150 22 17 2 46 6 65 9 19 3 53 7 75 10 22 3 78 12 125 20 112 18 147 24 195
31 60 9 195 41 251 59 88 30 132 91 113 158 -11 39 -60 85 -100 92 -13 3 -46
9 -74 15 -110 21 -268 29 -895 45 -636 16 -1012 33 -1365 60 -153 12 -212 16
-250 20 -22 2 -69 7 -105 10 -36 3 -76 8 -90 10 -14 2 -53 7 -87 10 -34 3 -72
8 -85 10 -13 3 -45 7 -73 10 -27 3 -61 7 -75 9 -25 5 -63 11 -137 22 -33 4
-78 12 -180 30 -16 3 -35 7 -43 9 -8 3 -33 7 -55 11 -22 3 -107 23 -190 45
-82 22 -157 41 -166 43 -32 8 -206 70 -249 88 -304 132 -475 277 -525 446 -29
96 -21 233 19 343 53 148 161 339 263 469 77 99 170 211 232 280 137 154 420
430 625 611 27 24 57 51 66 59 9 9 106 92 215 184 110 93 211 178 225 190 14
12 59 48 100 81 41 33 84 68 95 77 11 9 79 65 150 123 315 259 360 297 459
393 99 97 128 144 129 209 0 60 -40 103 -106 110 -73 8 -166 -27 -435 -164
-398 -203 -609 -308 -742 -368 -301 -137 -592 -237 -770 -265 -41 -7 -84 -14
-95 -16 -42 -9 -242 -5 -290 5 -152 33 -263 127 -327 276 -30 71 -45 117 -53
165 -3 19 -7 42 -10 50 -25 96 -25 552 -1 687 2 10 7 50 11 88 4 39 9 79 12
90 2 11 6 36 9 55 2 19 7 47 10 62 3 15 7 39 9 55 4 27 42 225 51 268 3 11 7
31 10 45 3 14 10 45 15 70 6 25 12 52 14 60 1 8 8 35 15 60 7 25 13 50 14 55
15 74 102 399 152 570 120 406 282 903 549 1680 232 677 301 900 319 1048 12
92 -25 168 -91 186 -113 32 -216 -83 -520 -579 -46 -74 -88 -142 -93 -150 -6
-8 -13 -22 -17 -30 -3 -8 -14 -26 -23 -40 -10 -14 -28 -45 -42 -70 -14 -25
-53 -92 -88 -150 -34 -58 -73 -124 -86 -147 -12 -23 -64 -112 -114 -197 -49
-86 -90 -160 -90 -165 0 -5 -3 -11 -8 -13 -6 -2 -62 -96 -159 -268 -19 -32
-198 -339 -226 -385 -6 -11 -28 -47 -47 -80 -19 -34 -41 -70 -47 -80 -7 -11
-21 -36 -32 -55 -10 -19 -50 -87 -89 -150 -39 -63 -81 -133 -92 -155 -12 -21
-30 -50 -41 -63 -10 -14 -19 -31 -19 -38 0 -8 -4 -14 -8 -14 -5 0 -19 -21 -32
-47 -13 -27 -26 -50 -30 -53 -6 -4 -65 -99 -109 -173 -9 -15 -40 -64 -68 -108
-29 -45 -53 -85 -53 -90 0 -5 -4 -9 -10 -9 -5 0 -10 -5 -10 -10 0 -6 -20 -41
-45 -78 -25 -37 -50 -74 -55 -82 -28 -46 -209 -313 -242 -357 -21 -29 -38 -56
-38 -62 0 -5 -4 -11 -8 -13 -4 -1 -19 -19 -33 -38 -26 -36 -137 -187 -151
-205 -168 -221 -381 -450 -509 -546 -109 -82 -202 -114 -252 -87 -92 49 -161
238 -192 528 -4 30 -8 66 -11 80 -26 157 -25 1136 1 1460 2 25 6 99 10 165 3
66 8 149 10 185 3 36 7 103 10 150 6 93 14 206 20 285 2 28 7 97 11 155 3 58
8 121 9 140 2 19 7 78 10 130 4 52 8 118 10 145 4 57 16 237 20 305 38 620 21
880 -63 938 -38 27 -77 34 -120 22 -44 -11 -79 -45 -119 -115 -65 -113 -128
-292 -299 -850 -35 -115 -68 -221 -73 -235 -11 -30 -82 -258 -86 -274 -1 -6
-5 -18 -8 -26 -3 -8 -31 -94 -63 -190 -57 -175 -162 -478 -185 -535 -7 -16
-13 -34 -15 -40 -9 -35 -145 -364 -199 -480 -161 -350 -299 -569 -460 -731
-131 -131 -201 -167 -331 -168 -102 -1 -148 15 -259 88 -64 43 -218 192 -275
266 -19 25 -37 47 -40 50 -27 25 -203 293 -268 410 -14 25 -41 72 -59 105
-154 275 -380 771 -559 1225 -47 118 -89 224 -95 235 -9 19 -206 550 -290 780
-22 61 -49 133 -59 160 -73 198 -94 254 -106 280 -7 17 -28 68 -48 114 -80
188 -133 235 -226 200z"/>
</g>
</svg>
